<svg id="Layer_1" data-name="Layer 1" xmlns="http://www.w3.org/2000/svg" viewBox="0 0 124 124"><defs><style>.cls-1{fill:#ffdf81;}.cls-2{fill:#fff8e1;}.cls-3{fill:#ffd44e;}.cls-4{fill:#ffecb2;}.cls-5{fill:#ffb100;}</style></defs><path class="cls-1" d="M24.67,72.5c-.73.5-.39.21-.25,1.09l5.45,35.75h46L70.44,73.66c-.14-.92-.47-.68.3-1.2Z"/><path class="cls-2" d="M27.33,76.91v0a2,2,0,0,1,1.92-2.23l40.94,0a9.55,9.55,0,0,1,.09-2.12s-.85,0-.86,0l-44.62,0a2.17,2.17,0,0,0-.61,2.28l5.7,34.56H32.7Z"/><path class="cls-3" d="M70.48,72.46l-1.85,2.16c-1,7.43-.67,30.34-36.37,32.05h0L30,109.2l46.27.14L70.81,73.66C70.67,72.74,69.71,73,70.48,72.46Z"/><path class="cls-1" d="M79.91,18.81l16.45,8.05a2,2,0,0,1,.76,1.29l3.54,22.56A44.38,44.38,0,0,1,101,60.88l-3.64,44.26a4.59,4.59,0,0,1-4.57,4.21H78.23a2.58,2.58,0,0,1-2.55-2.2L70.63,73.64a2.3,2.3,0,0,1,1-2.34l9-6.14A2.59,2.59,0,0,0,81.68,63V21.52A2.74,2.74,0,0,0,79.91,18.81Z"/><path class="cls-3" d="M100.89,50.71,97.36,28.15a2,2,0,0,0-.76-1.29l-6.69-3.15c5.51,15.37,5.58,27.59,4.6,44.4-.81,14-6.65,24.36-20.16,28.65l1.9,12.59H95.4a2,2,0,0,0,2-1.83l3.84-46.64A43.83,43.83,0,0,0,100.89,50.71Z"/><path class="cls-1" d="M81.68,64.08h-46V21.18a3.11,3.11,0,0,1,3.11-3.11H78.57a3.11,3.11,0,0,1,3.11,3.11Z"/><path class="cls-2" d="M37.22,22a2.1,2.1,0,0,1,2.09-2.09H81.15a.24.24,0,0,0,.22-.34c-.49-1.34-1.88-1.52-3.51-1.52H39a3.59,3.59,0,0,0-3.58,3.58V64.08l1.77.13Z"/><path class="cls-2" d="M37.22,29.79a2.1,2.1,0,0,1,2.09-2.09H81.15a.25.25,0,0,0,.22-.35c-.49-1.33-1.88-1.51-3.51-1.51H39a3.59,3.59,0,0,0-3.58,3.57v34.9l1.77.13Z"/><polygon class="cls-2" points="35.67 64.38 25.52 71.33 25.52 72.5 46.37 72.5 70.35 72.97 80.87 64.53 35.67 64.38"/><polygon class="cls-3" points="79.94 27.7 79.94 62.56 37.22 62.56 35.89 64.21 81.68 64.21 81.68 25.98 79.94 27.7"/><polygon class="cls-3" points="79.94 19.5 79.94 24.49 37.22 24.49 35.67 26.14 81.68 26.14 81.68 19.5 79.94 19.5"/><path class="cls-4" d="M42,34.69V60.3a3.68,3.68,0,0,0,.58.06H73.8a3.72,3.72,0,0,0,3.71-3.71v-23a3.59,3.59,0,0,0-.1-.81H43.89A1.91,1.91,0,0,0,42,34.69Z"/><path class="cls-3" d="M41.88,34.35a1.91,1.91,0,0,1,1.9-1.9H77.3a3.72,3.72,0,0,0-3.61-2.9H42.45a3.72,3.72,0,0,0-3.71,3.71V56.31A3.72,3.72,0,0,0,41.88,60Z"/><path class="cls-2" d="M75.06,55.94a1.9,1.9,0,0,1-1.9,1.9H39.64a3.71,3.71,0,0,0,3.61,2.9H73.56A4.66,4.66,0,0,0,78.2,56.1V34a4,4,0,0,0-3.14-4Z"/><path class="cls-5" d="M81.68,65h-46a.64.64,0,0,1-.63-.63V21.48a3.75,3.75,0,0,1,3.74-3.74H78.57a3.75,3.75,0,0,1,3.74,3.74v42.9A.63.63,0,0,1,81.68,65ZM36.3,63.75H81.05V21.48A2.48,2.48,0,0,0,78.57,19H38.78a2.48,2.48,0,0,0-2.48,2.48Z"/><path class="cls-5" d="M76,110H30a.62.62,0,0,1-.62-.53L23.93,73.68a3,3,0,0,1,1.24-2.87l10.15-7a.63.63,0,0,1,.35-.11h46a.62.62,0,0,1,.6.44.65.65,0,0,1-.24.71L72,71.81a1.78,1.78,0,0,0-.76,1.75l5.44,35.68a.64.64,0,0,1-.15.51A.64.64,0,0,1,76,110Zm-45.47-1.25H75.28L70,73.75a3.07,3.07,0,0,1,1.29-3L79.66,65H35.87l-10,6.84a1.68,1.68,0,0,0-.71,1.64Z"/><path class="cls-5" d="M95.16,110H76a.63.63,0,1,1,0-1.25H95.16a1.36,1.36,0,0,0,1.36-1.26l3.85-46.63a44.28,44.28,0,0,0-.33-10L96.5,28.24a1.33,1.33,0,0,0-.48-.85l-16.38-8a.63.63,0,0,1,.55-1.13l16.45,8.05.11.07a2.61,2.61,0,0,1,1,1.69l3.54,22.55a45.1,45.1,0,0,1,.34,10.32l-3.84,46.64A2.64,2.64,0,0,1,95.16,110Z"/><circle class="cls-1" cx="60.57" cy="68.37" r="1.92"/><circle class="cls-1" cx="66.28" cy="68.37" r="1.92"/><path class="cls-2" d="M60,69.32a1.92,1.92,0,0,1,1.92-1.93,2.32,2.32,0,0,1,.46.06,1.92,1.92,0,1,0-2.14,2.78A1.87,1.87,0,0,1,60,69.32Z"/><path class="cls-2" d="M65.58,69.32a1.92,1.92,0,0,1,1.92-1.93,2.32,2.32,0,0,1,.46.06,1.92,1.92,0,1,0-2.14,2.78A1.87,1.87,0,0,1,65.58,69.32Z"/><path class="cls-5" d="M60.57,70.92a2.55,2.55,0,1,1,2.55-2.55A2.55,2.55,0,0,1,60.57,70.92Zm0-3.85a1.3,1.3,0,1,0,1.29,1.3A1.3,1.3,0,0,0,60.57,67.07Z"/><circle class="cls-1" cx="54.9" cy="68.37" r="1.92"/><path class="cls-2" d="M54.33,69.32a1.92,1.92,0,0,1,1.92-1.93,2.13,2.13,0,0,1,.45.06,1.92,1.92,0,1,0-2.13,2.78A1.87,1.87,0,0,1,54.33,69.32Z"/><path class="cls-5" d="M54.9,70.92a2.55,2.55,0,1,1,2.55-2.55A2.56,2.56,0,0,1,54.9,70.92Zm0-3.85a1.3,1.3,0,1,0,1.3,1.3A1.3,1.3,0,0,0,54.9,67.07Z"/><path class="cls-5" d="M66.28,70.92a2.55,2.55,0,1,1,2.55-2.55A2.55,2.55,0,0,1,66.28,70.92Zm0-3.85a1.3,1.3,0,1,0,1.29,1.3A1.3,1.3,0,0,0,66.28,67.07Z"/><path class="cls-5" d="M74.44,61.12H42.49a4,4,0,0,1-4-4V33.38a4,4,0,0,1,4-4H74.44a4,4,0,0,1,4,4V57.14A4,4,0,0,1,74.44,61.12ZM42.49,30.66a2.73,2.73,0,0,0-2.73,2.72V57.14a2.73,2.73,0,0,0,2.73,2.72H74.44a2.73,2.73,0,0,0,2.73-2.72V33.38a2.73,2.73,0,0,0-2.73-2.72Z"/><path class="cls-5" d="M70.69,73.12h-46a.63.63,0,1,1,0-1.25h46a.63.63,0,1,1,0,1.25Z"/><path class="cls-5" d="M81.69,26.77h-46a.63.63,0,0,1-.63-.63.63.63,0,0,1,.63-.63h46a.63.63,0,0,1,.62.63A.63.63,0,0,1,81.69,26.77Z"/><circle class="cls-1" cx="37.9" cy="56.21" r="4.26"/><path class="cls-2" d="M36.47,54.78a4.25,4.25,0,0,1,5.12-.68,4.18,4.18,0,0,0-.68-.9,4.26,4.26,0,0,0-6,6,4,4,0,0,0,.9.68A4.25,4.25,0,0,1,36.47,54.78Z"/><path class="cls-3" d="M39.32,57.64a4.25,4.25,0,0,1-5.12.68,4.26,4.26,0,1,0,6.71-5.12,4.1,4.1,0,0,0-.9-.68A4.25,4.25,0,0,1,39.32,57.64Z"/><path class="cls-5" d="M37.9,69.39a.63.63,0,0,1-.63-.63V60.47a.63.63,0,1,1,1.25,0v8.29A.63.63,0,0,1,37.9,69.39Z"/><path class="cls-5" d="M37.9,61.09a4.88,4.88,0,1,1,4.88-4.88A4.89,4.89,0,0,1,37.9,61.09Zm0-8.51a3.63,3.63,0,1,0,3.63,3.63A3.63,3.63,0,0,0,37.9,52.58Z"/><path class="cls-5" d="M64,53.3H53.36a.63.63,0,0,1-.63-.63V37.85a.63.63,0,0,1,.63-.63H64a.62.62,0,0,1,.49.23.61.61,0,0,1,.13.52L62.83,46.7a.63.63,0,0,1-.27.4.62.62,0,0,1-.48.09L55.34,45.8a.61.61,0,0,1-.49-.73l1-5.19a.62.62,0,0,1,.27-.4.66.66,0,0,1,.47-.1l4.4.89a.67.67,0,0,1,.41.28.65.65,0,0,1,.08.49l-.7,2.83a.64.64,0,0,1-.75.46l-1.92-.43a.65.65,0,0,1-.48-.75L57.89,42a.61.61,0,0,1,.75-.47.62.62,0,0,1,.47.75l-.11.5.71.16.39-1.6L57,40.74l-.76,4,5.52,1.14,1.49-7.37H54v7.29l1.94,3.09,2.76-1.14a.64.64,0,0,1,.47,0l3,1.21,1.62-.61a.6.6,0,0,1,.58.07.61.61,0,0,1,.27.51v3.78A.63.63,0,0,1,64,53.3ZM54,52.05h9.38V49.8l-1,.38a.61.61,0,0,1-.46,0l-3-1.21-3,1.24a.62.62,0,0,1-.77-.24L54,48.11Z"/></svg>